<?xml version="1.0" encoding="utf-8"?>
<!-- Generator: Adobe Illustrator 23.0.0, SVG Export Plug-In . SVG Version: 6.00 Build 0)  -->
<svg version="1.1" id="Слой_1" xmlns="http://www.w3.org/2000/svg" xmlns:xlink="http://www.w3.org/1999/xlink" x="0px" y="0px"
	 viewBox="0 0 576.6 308.1" style="enable-background:new 0 0 576.6 308.1;" xml:space="preserve">
<style type="text/css">
	.st0{fill:#403936;}
</style>
<path class="st0" d="M272.9,231.3c12.9-0.4,23.6-3,28.6-7.1c2.8-2.3,4-4.5,4.6-8.7c1.1-7.4-0.4-14.3-4.2-19.3
	c-1.9-2.6-4.3-4.2-7.2-4.8c-2.6-0.6-5.5,0.4-8,2.6c-1.4,1.3-3.1,3.5-4,5.3l-0.5,1.1l1.2-1c1.6-1.4,3.5-2.6,5.7-3.7
	c2.3-1.1,5.1-1.4,6.9-0.7c2.4,0.9,4.3,3.8,5.5,8.4c0.5,2,0.6,3.1,0.7,5.6c0,4.7-0.9,7.3-3.8,10.2c-2.6,2.6-6.6,4.3-11.9,4.9
	c-4.6,0.5-18.9,1.1-19,0.7c-0.1-0.2,0.7-1.7,0.9-1.7c0.1,0,0.2,0.2,0.4,0.5c0.9,2,2.9-0.4,5.4-6.6c3.9-9.5,10.4-29.5,8.4-25.8
	c-0.4,0.8-5.9,15.5-8.6,23.2c-2.3,6.5-2.6,7.1-3.3,7.8c-0.6,0.6-1.2,0.4-1.4-0.6l-0.2-0.8l-1.2,2.1c-1.2,2-1.3,2.1-2.2,2.1l-1,0.1
	l0.2-0.8c0.1-0.4,1.1-3.2,2.3-6.2c1.2-3,2.1-5.4,2-5.5c0-0.1-0.5,0.5-0.9,1.3c-2.6,4.3-6.3,10.1-6.7,10.6c-0.6,0.6-1.2,0.5-1.2-0.2
	s1.9-6.5,2.5-7.7c0.3-0.5,0.4-0.9,0.4-0.9c-0.1,0-1.2,1.1-2.5,2.4c-1.9,2-2.4,2.3-2.5,2c-0.2-0.6,0.9-2.8,6-12
	c4.5-8,5.5-9.7,6.3-11.5l0.4-0.9l-0.9,0.7c-1.2,1-1.7,1.1-2.2,0.6c-0.4-0.5-0.5-0.9,0-2.5c0.2-0.7,0.2-1.3,0.1-1.3s-0.8,0.7-1.6,1.5
	c-0.8,0.8-1.5,1.5-1.5,1.4c-0.2-0.2,1.8-4.5,3-6.5c0.6-1.1,1.7-2.7,2.4-3.6c1.3-1.8,5.7-6.1,6.2-6.1c0.2,0,0-0.2-0.5-0.4
	c-3.1-1.7-5.1-8.6-4.3-14.5c0.4-3,1.1-5.3,2.4-7.8c1.4-2.7,2.9-4.7,5.5-7.2c1.1-1.1,2.2-2.4,2.5-2.9c0.6-1.1,3.4-4.2,4.6-4.9
	c0.7-0.4,0.8-0.7,0.8-1.3c0-1.4,1.6-4.2,3.3-5.8c0.9-0.8,1.5-1.5,1.4-1.5s-0.7,0.3-1.3,0.7c-1.6,1-3.3,3.1-4.5,5.5
	c-0.8,1.5-1.4,2.4-2.2,3c-0.6,0.5-1.6,1.7-2.2,2.6c-0.7,1.1-1.5,2-2.3,2.5c-4.8,3.3-7.6,8-9.1,15.5c-0.3,1.6-0.4,3.3-0.4,7.4
	c0,4.8,0,5.5,0.6,7.5l0.6,2.2l-2,4.3c-1.1,2.4-2.8,6-3.8,8c-1.7,3.6-2,4.8-1.3,5c0.2,0,0.9-0.5,1.6-1.2s1.3-1.2,1.3-1.1
	c0,0.1-0.2,0.8-0.3,1.6c-0.2,0.7-0.3,1.5-0.2,1.7c0.2,0.4,0.9,0.4,1.7-0.2c0.8-0.6,0.8-0.4,0.2,0.5c-0.8,1.2-5.4,8.8-6.9,11.7
	c-3.4,6.1-4.4,8.7-4.4,10.8c0,0.8,0.1,1.1,0.4,1.1c0.5,0,1.9-1.5,3.2-3.4c0.5-0.7,1-1.3,1-1.3s-0.5,1.4-1.2,3.1
	c-0.7,1.7-1.2,3.2-1.2,3.4c0,0.3-0.4,0.4-3.8,0.2c-14.2-0.6-23.7-2.9-25.6-6.2c-0.9-1.5-2.6-10.9-3.3-17.8
	c-1.3-12.8-0.4-23.3,2.6-32.4c2.2-6.5,4.9-11,9.3-15.4c3.1-3.1,5.4-4.8,9.1-6.6l2.3-1.1l1.1-2.2c1-2,1.1-2.4,1-3.4
	c-0.1-1.4-0.9-2.4-2.8-3.3c-3.1-1.5-7.3-5.5-10-9.6c-3-4.5-5.5-10.5-6.3-15.1c-0.4-2.2-0.4-5.2,0-5.6c0.2-0.2,8.7,2.1,13.5,3.5
	l1.1,0.4l0.8-0.9c1.8-1.9,5.7-3.4,10.9-4.3c2.6-0.4,3.7-0.5,7.7-0.4c5.1,0.1,6.8,0.4,9.4,1.7l1.5,0.7l3.8-3.7
	c5.4-5.2,6.4-6.1,6.6-5.9c0.5,0.3,1.1,2.8,1.2,5.6c0.2,4.7-0.9,12.5-2.9,20.1c-0.4,1.6-0.7,3-0.7,3c0.2,0.2,1.8-2.6,3-5.2
	c4.1-8.7,4.8-17.2,2.1-24.4c-0.6-1.7-2.4-5-2.7-4.9c-0.1,0-1.1,1.2-2.3,2.5c-3,3.4-7.8,8.1-8.7,8.6c-0.7,0.3-0.9,0.3-1.9,0
	c-4.3-1.3-12.3-1.7-17.1-0.8c-3.4,0.6-6.5,1.7-9.2,3.1l-2.3,1.2l-3.6-0.8c-6.7-1.6-11-2.9-12.7-3.9l-0.9-0.5l0.1,4.8
	c0.4,13.4,2.4,18.5,9.7,25.6c1.5,1.4,3.9,3.6,5.3,4.8s2.8,2.5,2.9,2.9c0.4,1-0.1,1.7-1.9,2.9c-8.1,5.2-16.9,13.6-23,22.3
	c-7.1,10-11.4,20.9-13,33.2c-0.5,3.8-0.6,12.2-0.1,16.2c0.5,4.2,1.3,8.6,1.8,9.7c1.3,2.8,4.9,4.5,11.3,5.2c8.7,1,19,2,25.8,2.5
	c4.3,0.3,15.4,0.6,18.3,0.5C267.9,231.4,270.6,231.3,272.9,231.3z"/>
<path class="st0" d="M353.7,228.4c5.7-0.3,12.4-1,12.7-1.3c0.1-0.1-0.9-0.2-2.5-0.2c-3.6,0-15-0.4-20.1-0.7
	c-9.6-0.6-16.7-2.7-17.6-5.2c-0.6-1.7,4.8-4.6,11-5.9c2.2-0.5,3.2-0.6,8.7-0.5c5.9,0,6.3,0,8.5,0.6c1.3,0.3,2.6,0.7,2.8,0.8
	s-0.5-0.4-1.7-1c-6.5-3.6-12.2-8.3-15.2-12.6c-4.1-6-4.8-12.3-2.2-18.6c2.2-5.4,5.7-8.9,10.1-10.4c1.6-0.5,2.2-0.6,5.5-0.6
	c4.1,0,6.3,0.4,10,1.9c1,0.4,1.9,0.7,1.9,0.6c0.2-0.2-3.1-4-4.5-5.2c-6.5-5.4-13.4-5.1-20.7,0.8c-3.6,2.9-6.5,6.6-7.7,9.8
	c-2,5.3-2.7,9.1-2.5,13.5c0.2,5,2.1,9.3,5.5,12.7c1.8,1.8,4.4,3.7,6.4,4.6l1,0.4l-0.9,0.1c-7.2,1.1-10.1,1.8-12.9,3.1
	c-5.2,2.4-6.7,6.1-3.9,9.3c2.6,2.8,9.2,4.2,19.8,4.3C347.7,228.6,351.4,228.5,353.7,228.4z"/>
<path class="st0" d="M375.9,215.2c2.3-1.2,4.6-3,6.7-5.2c5.7-6.2,8.7-14.7,7.9-23c-0.8-8.3-4.4-15.2-11.6-21.9
	c-13.5-12.5-23.8-24-36.3-40.8c-6.7-8.9-17.3-24.4-21.8-31.9c-1.7-2.9-1.9-2.6-1.1,1.5c2,10.2,9.2,23.7,21.8,40.5
	c7.4,9.9,15.7,19.9,28,33.7c7.1,8,9.8,11.6,11.9,16.2c1.8,4,2.5,6.9,2.4,11c0,3.6-0.7,6.2-2.3,9.5c-1.2,2.4-1.9,3.4-4.7,6.9
	c-2.2,2.9-3.2,4.3-2.7,4.3C374.1,216,375,215.7,375.9,215.2z"/>
<path class="st0" d="M391.1,200.8c2.3-1.4,5.7-4.5,7.2-6.6c2.7-3.8,4-7.8,4.3-12.6c0.5-9.7-4.6-19.7-11.8-23.6
	c-1.4-0.8-3.5-1.5-4.2-1.5c-0.2,0,0.6,1,1.9,2.3c3.4,3.5,5.1,6.2,6.5,10.5c1,3.1,1.3,5.7,1.2,10c-0.1,2.7-0.3,4.4-0.8,6.4
	c-1.2,5.3-3.9,11.6-6.7,15.9c-0.4,0.6-0.4,0.7,0,0.5C388.9,202,390,201.4,391.1,200.8z"/>
<path class="st0" d="M288.8,191.9c0.4-0.2,1.1-0.6,1.4-1c0.8-0.8,3.1-0.8,5,0c2.2,1,3.5,0.7,4.4-1.1c0.5-1,0.7-2.9,0.4-3.8
	c-0.2-0.6-1.9-1.6-2.7-1.6c-0.3,0-0.7-0.1-0.7-0.2c-0.1-0.1,0.1-1.4,0.3-2.8s0.4-3,0.5-3.5c0-0.7,0.1-1,0.7-1.4
	c0.4-0.3,1-0.9,1.4-1.5s1.2-1.3,1.9-1.7c2.8-1.4,4.7-4.1,5.4-7.4c0.6-3.2-0.2-9.1-1.9-13.2c-0.8-1.9-0.8-1.9,0.1-2
	c0.4,0,0.9-0.1,1.3-0.2c0.4-0.1,0.1-0.2-1.2-0.2h-1.8l0.6,1.3c1,2.4,1.3,3.6,1.3,7.1c0,2.4-0.1,3.8-0.4,4.9
	c-0.9,3.4-2.5,6.5-4.3,8.4c-0.6,0.6-1.1,1.3-1.2,1.6s-0.7,1.1-1.3,1.7c-1.2,1.2-1.2,1.3-1.3,3.3c-0.1,1.3-0.3,2.5-0.8,3.7
	c-0.4,0.9-0.6,1.7-0.6,1.7s0.6,0.3,1.3,0.5c1.7,0.6,2.8,1.8,2.8,2.9c0,0.7-0.2,1.1-0.9,1.9c-1.2,1.3-2.2,1.5-3,0.7
	c-1.1-1-1.7-1.2-3.2-1c-1.1,0.1-1.6,0.3-2.5,1.1c-1.6,1.4-2.9,1.3-4.7-0.3c-0.9-0.8-1-0.6-0.5,0.7
	C285.3,192.1,287,192.8,288.8,191.9z"/>
<path class="st0" d="M310,153.4c1.7-1.3,3.2-3.6,3.8-5.9c0.7-2.7,0.2-5.5-1.6-8.9c-0.6-1.2-1.3-2.6-1.4-3.1
	c-0.2-1.2-1.1-2.3-2.4-2.8l-1-0.4l1.5-0.9c3.3-2.2,3.8-4.5,1.7-7.5c-0.5-0.6-1.2-1.5-1.7-1.8l-0.9-0.7l0.8,1.3
	c1.1,1.8,1.4,2.5,1.4,3.7c0,1.7-1.2,3.1-3.9,4.5c-1.2,0.6-1.2,0.3,0-0.5c1.1-0.7,2-2,2-2.7s-0.9-1.9-1.8-2.6l-0.8-0.6l0.5,0.9
	c1.2,1.9,0.4,3.7-2.5,5.5c-0.8,0.5-0.8,0.5,0.2-0.6c0.5-0.6,0.9-1.3,0.9-1.5c0-0.4-1.1-1.7-1.5-1.7c-0.1,0-0.1,0.5,0,1.1
	c0.1,1,0,1.2-0.7,2l-0.9,0.9l-2.7,0.1c-1.8,0.1-3,0.3-3.7,0.6l-1,0.4l2,0.2c1.1,0.1,2.5,0.3,3.1,0.5c3.3,0.9,5.6,3.2,5.7,5.7
	c0,0.8,0,0.8,0.4-0.4c0.5-1.5,1.2-2.4,2-2.3c0.8,0.1,1.5,1.1,1.6,2.2c0,0.7,0.3,1.2,1.6,2.7c3.1,3.5,3.1,6.5,0.1,10.6
	c-0.8,1-0.8,1.1-1.1,0.6c-0.5-0.9-1.4-1.9-1.6-1.7c-0.1,0.1,0,0.3,0.1,0.5s0.3,1,0.4,1.7c0.1,0.8,0.2,1.4,0.3,1.4
	C309,154,309.5,153.7,310,153.4z"/>
<path class="st0" d="M312.3,97.6c1.5-0.7,3.4-2.8,4.4-4.8c2.2-4.4,3.5-10.8,4.9-23.7l0.3-2.7l-1-2.1c-3.1-6.2-10.3-11.3-20.6-14.5
	c-1.8-0.5-3.7-1.2-4.3-1.4c-8-2.7-12.1-3.3-17.2-2.4c-6.2,1-12.2,4.2-16.2,8.5c-1.4,1.5-2.7,3.2-2.3,2.9c0.1-0.1,1-0.6,1.9-1.2
	c4.1-2.5,10-5.1,14-6.2c4.8-1.3,11-1.7,15.3-0.9c4.5,0.8,9.5,3,13.3,5.9c4.6,3.5,9.7,9.7,10.9,13.5c0.6,1.9,1,7.4,0.7,10.5
	c-0.5,5.1-1.7,8.2-4.2,10.8c-2,2-3.6,2.7-6.3,2.7c-2.1,0-3.4-0.5-4.6-1.8c-1.4-1.5-1.6-2.7-1.6-11.2c0-7.5-0.2-9.2-1-10.5
	c-0.4-0.7-1.3-1.5-1.7-1.5c-0.3,0,0,2.4,0.5,3.7c0.5,1.6,0.4,3-0.4,5.2c-1.9,5.3-1.9,9.5,0,13.7c1.6,3.4,5.5,6.4,10.2,7.7
	C308.9,98.5,310.8,98.3,312.3,97.6z"/>
<path class="st0" d="M271.8,89.6c2-0.3,6.5-1.3,6.1-1.4c-7.4-0.9-12.3-1.9-16.9-3.5c-6.9-2.3-11.2-4.8-15-8.8
	c-1.9-1.9-2.5-2.8-3.4-4.6c-0.7-1.4-1.2-2.9-1.4-4c-0.3-1.7-0.3-1.8,0.4-3.2c0.4-0.8,1.1-1.9,1.6-2.4l0.9-0.9l2,0.5
	c2.3,0.6,5,0.6,8.2,0.1c2.8-0.5,6.6-1.7,8.5-2.6c1.3-0.7,3.2-2.3,3.2-2.7c0-0.1-0.6,0.1-1.4,0.5c-2.4,1.2-4.5,1.5-9.5,1.3
	c-8.5-0.3-9.7-0.3-13.3,0.6c-3.1,0.7-3.4,0.8-4.3,1.8c-0.5,0.5-0.9,1.2-0.9,1.5s0.6,1.7,1.4,3.2c0.7,1.5,1.9,4.2,2.4,6
	c1.3,3.9,2.7,6.7,4.6,9.3c3.6,4.9,9.1,8.1,15.3,9.1c1,0.1,2,0.3,2.2,0.4C263.6,90.1,269.6,90,271.8,89.6z"/>
<path class="st0" d="M233.7,123c0-0.3,1.7-3.4,1.7-3.2c0,0.1-0.2,0.9-0.4,1.7c-0.3,1-0.6,1.5-0.9,1.6
	C233.9,123.2,233.7,123.1,233.7,123z"/>
<path class="st0" d="M49.4,226.2l-0.4,2c-0.8,0.1-1.6,0.1-2.2,0.1c-0.9,0-2-0.1-3.3-0.2c-2.2-0.2-3.6-0.4-4.2-0.4
	c-1,0-2.5,0.2-4.5,0.5c0.7-1.8,1.3-3.8,1.8-5.8c0.4-1.4,0.7-3.9,1.1-7.4c-2.7,0-7,0-12.7,0.2c-6,9.1-10.3,14.8-13.1,17.1
	s-5.4,3.5-7.9,3.5c-1.3,0-2.3-0.3-2.9-0.8s-1-1.2-1-2c0-0.6,0.2-1.1,0.6-1.5s0.8-0.6,1.4-0.6c0.3,0,0.8,0.1,1.3,0.2
	c1.4,0.3,2.3,0.5,2.8,0.5c1.6,0,3.3-0.9,5.2-2.7c3.1-2.9,7.7-9,13.7-18.3c6.8-10.5,12.4-18.1,16.6-22.9c-5.8,0.5-9.4,1-10.8,1.5
	c-2,0.6-3.4,1.6-4.4,2.8s-1.5,2.5-1.5,3.8c0,0.4,0.2,1,0.5,1.8c0.3,0.9,0.5,1.5,0.5,1.9c0,0.5-0.2,1-0.6,1.4s-0.9,0.6-1.4,0.6
	c-0.8,0-1.4-0.3-1.9-0.9c-0.5-0.6-0.7-1.5-0.7-2.7c0-1.7,0.4-3.3,1.3-4.9s2.1-2.9,3.8-4c1.6-1.1,3.7-1.9,6.2-2.4
	c1.3-0.3,3.5-0.6,6.7-0.8c2.8-0.2,4.5-0.5,5.2-0.7c1.1-0.3,2.2-0.9,3.2-1.8c-0.7,2.9-1.2,5.4-1.5,7.6l-2.7,20.3L42,225.8
	c1.7,0.4,3.3,0.7,4.7,0.7C47.3,226.5,48.3,226.4,49.4,226.2z M38.1,212.5c1.1-9.5,2.3-16.5,3.4-20.8c-3,3.9-4.8,6.4-5.5,7.5l-9,13.4
	c1.9,0.1,4.7,0.1,8.3,0.1C36.1,212.6,37.1,212.5,38.1,212.5z"/>
<path class="st0" d="M55.5,206.5l-1.2-1.2c3-2.9,5.4-4.8,7.2-5.7s3.3-1.4,4.6-1.4c0.5,0,0.9,0.1,1.2,0.3s0.4,0.5,0.4,0.7
	s-0.1,0.6-0.2,1.1l-1.6,7.1c2.4-2.7,5.4-5.1,9-7.4c1.9-1.2,3.5-1.8,4.7-1.8c0.9,0,1.6,0.3,2.1,0.9s0.8,1.4,0.8,2.5
	c0,0.7-0.1,1.5-0.3,2.5c-0.4,1.5-1.4,4.8-2.9,9.9c-1.5,4.8-2.2,8-2.2,9.5c0,0.5,0.1,0.8,0.2,1.1s0.3,0.4,0.6,0.4
	c0.7,0,1.7-0.7,3.2-2c1-0.9,2.1-1.8,3.1-2.6l0.9,1.3c-2.2,2.4-4.4,4.3-6.7,5.7c-1.5,0.9-2.7,1.4-3.7,1.4c-0.9,0-1.6-0.3-2.1-1
	s-0.7-1.7-0.7-3.1c0-2.1,1.3-7.3,3.9-15.6c0.8-3,1.2-4.7,1.2-5.2c0-0.7-0.4-1.1-1.3-1.1s-2.1,0.5-3.6,1.5c-2.2,1.5-4,3.2-5.5,5.1
	c-0.9,1.3-1.7,3.3-2.4,6.1l-2.8,12.3h-5.2c1-3.5,1.8-6.9,2.6-10.1l3.1-13.4c0.1-0.5,0.2-0.9,0.2-1.2c0-0.6-0.2-1-0.7-1
	c-0.4,0-0.9,0.2-1.6,0.7C58.2,203.9,56.8,205.1,55.5,206.5z"/>
<path class="st0" d="M88.7,206.4l-1.5-1.2c2.3-2.6,4.5-4.4,6.4-5.5s3.6-1.6,4.9-1.6c0.7,0,1.3,0.2,1.7,0.5c0.4,0.3,0.6,0.8,0.6,1.3
	c0,0.7-0.8,3.6-2.3,8.6c-2.5,8.3-3.7,13.3-3.7,15c0,0.3,0.1,0.6,0.2,0.8c0.2,0.2,0.3,0.3,0.5,0.3c0.8,0,2.7-1.5,5.8-4.4l1.4,1.3
	c-3.2,3-5.6,5-7,5.8s-2.7,1.3-3.6,1.3c-0.8,0-1.5-0.3-2-0.8s-0.7-1.2-0.7-2.1c0-2.9,1.8-10.1,5.3-21.5c0.2-0.5,0.2-1,0.2-1.4
	c0-0.5-0.2-0.7-0.6-0.7c-0.5,0-1,0.2-1.6,0.6S90.8,204.3,88.7,206.4z M102.5,183.1c0.7,0,1.3,0.2,1.8,0.7s0.7,1.1,0.7,1.8
	c0,1-0.4,1.9-1.1,2.7s-1.5,1.2-2.4,1.2c-0.7,0-1.3-0.2-1.8-0.7s-0.7-1.1-0.7-1.9c0-1.1,0.3-2,1-2.7
	C100.8,183.5,101.6,183.1,102.5,183.1z"/>
<path class="st0" d="M105.8,206.3l-1.1-1.4c2.3-2.3,4.5-4,6.6-5.1s3.7-1.7,4.9-1.7c0.5,0,0.9,0.1,1.1,0.3s0.4,0.5,0.4,0.9
	c0,0.5-0.2,1.4-0.6,2.7c-0.5,2-0.9,3.5-1.1,4.7c5.6-5.7,9.9-8.6,12.9-8.6c0.8,0,1.4,0.2,1.8,0.6s0.6,1.1,0.6,2c0,1-0.4,2.7-1.1,5
	c2.7-2.8,5-4.8,7-5.9c2-1.2,3.5-1.7,4.6-1.7c1,0,1.7,0.3,2.3,0.8s0.8,1.4,0.8,2.6c0,0.7-0.1,1.5-0.4,2.5c-0.2,1-1.1,3.9-2.6,8.8
	c-1.9,6.1-2.8,9.7-2.8,10.9c0,0.8,0.3,1.2,1,1.2c0.4,0,0.9-0.1,1.3-0.4c1.4-1,2.8-2.2,4.3-3.7l1.2,1.3c-0.5,0.4-1.4,1.2-2.8,2.5
	c-1.9,1.7-3.2,2.7-3.9,3.2c-1.4,0.8-2.5,1.2-3.4,1.2c-0.7,0-1.3-0.3-1.9-1c-0.5-0.7-0.8-1.6-0.8-2.9c0-1.1,0.2-2.4,0.5-4
	c0.3-1.5,1.3-4.9,2.9-10.2c1.2-4,1.8-6.4,1.8-7.2s-0.4-1.2-1.1-1.2c-0.6,0-1.4,0.3-2.4,0.9c-2,1.2-3.7,2.7-5.1,4.5
	c-0.9,1.2-1.8,3.2-2.5,5.8c-1.6,5.8-2.7,10.5-3.5,14.2h-5l5.2-21.5c0.4-1.5,0.6-2.4,0.6-2.7c0-0.4-0.1-0.7-0.3-0.9s-0.5-0.3-0.8-0.3
	c-0.6,0-1.6,0.5-2.9,1.5c-2.3,1.7-4,3.3-5,4.8c-1,1.6-1.9,3.9-2.6,7.1l-2.7,11.9h-5.1l4-16.8c1.2-4.9,1.8-7.5,1.8-7.9
	c0-0.5-0.2-0.8-0.6-0.8C110.5,202.3,108.6,203.6,105.8,206.3z"/>
<path class="st0" d="M173.5,197.6l2.3-0.5l-2.6,8.9c-1.1,3.5-2.1,7.6-3,12.2c-0.5,2.5-0.8,4.1-0.8,4.9s0.3,1.1,0.9,1.1
	c0.4,0,1-0.2,1.8-0.7c1.5-0.9,2.8-1.9,4.2-3.2l1.1,1.4c-2.7,2.4-4.4,3.9-5.1,4.4c-1.5,1-2.9,1.8-4.3,2.3c-0.9,0.3-1.8,0.5-2.6,0.5
	c-0.6,0-1.1-0.1-1.4-0.4c-0.3-0.3-0.5-0.7-0.5-1.2c0-0.4,0.1-0.8,0.3-1.4l1.4-4.8c-2,2.4-4.4,4.5-7.2,6.2c-1.7,1.1-3.3,1.6-4.7,1.6
	s-2.4-0.5-3.1-1.4c-1-1.3-1.5-3-1.5-5.1c0-2.5,0.7-5.3,2-8.3s3.1-5.8,5.3-8.3s4.6-4.3,7-5.5c1.9-0.9,4.3-1.3,7.3-1.3
	c0.8,0,1.5,0,2.3,0.1L173.5,197.6z M169.1,203c-1.3-0.3-2.3-0.4-3.2-0.4c-2.1,0-3.9,0.6-5.5,1.7c-1.6,1.2-3,3.2-4.4,6.3
	c-1.3,3-2,6-2,9c0,1.6,0.3,2.7,0.8,3.4s1.2,1.1,2.1,1.1c1.6,0,3.4-0.9,5.2-2.6c1.9-1.7,3.2-4.3,4.1-7.5L169.1,203z"/>
<path class="st0" d="M194.4,219.3l1.2,1.3c-1.8,2.1-4,3.9-6.5,5.6s-4.6,2.5-6.2,2.5c-0.7,0-1.3-0.3-1.8-0.8
	c-0.5-0.6-0.7-1.3-0.7-2.3c0-1.9,0.7-5.8,2.2-11.7l3.8-15.4c1.4-5.6,2.5-9.3,3.5-11.2c1.5-2.9,3.5-5.1,6.2-6.7
	c2.7-1.6,5.5-2.4,8.4-2.4c1,0,1.8,0.2,2.4,0.7c0.6,0.5,0.9,1.1,0.9,1.8c0,0.8-0.3,1.4-0.8,1.9c-0.6,0.5-1.4,0.7-2.5,0.7
	c-0.7,0-1.7-0.1-3-0.4c-1.1-0.2-2.2-0.3-3.1-0.3s-1.7,0.2-2.2,0.6c-0.7,0.6-1.3,1.7-1.8,3.5s-1.4,5.3-2.7,10.6l-3.5,14.7
	c-1.7,7.4-2.6,11.2-2.6,11.6c0,0.8,0.3,1.1,0.8,1.1s1.3-0.3,2.3-0.9C190.5,222.8,192.4,221.2,194.4,219.3z"/>
<path class="st0" d="M426.8,200.2H425c0.3-2.5,0.4-4.3,0.4-5.6c0-1.8-0.5-3.2-1.5-4.3s-2.3-1.6-3.9-1.6c-2.6,0-4.8,0.9-6.7,2.8
	c-1.9,1.9-2.9,4-2.9,6.3c0,1.2,0.3,2.4,0.8,3.4s1.7,2.4,3.5,4.2c3.3,3.2,5.5,5.8,6.5,7.6s1.5,3.6,1.5,5.3c0,2.6-0.8,5-2.3,7.4
	c-1.6,2.4-3.9,4.3-6.9,5.9c-3,1.5-6.2,2.3-9.6,2.3c-3.3,0-6.1-0.9-8.4-2.6c-2.3-1.7-3.4-3.6-3.4-5.5c0-1,0.3-1.9,0.9-2.6
	s1.3-1,2.1-1c0.8,0,1.5,0.3,2,0.9c0.3,0.4,0.7,1.2,1,2.5c0.4,1.6,0.8,2.7,1.4,3.5c0.5,0.7,1.3,1.3,2.2,1.8s2,0.7,3.1,0.7
	c3.4,0,6.3-1.1,8.8-3.4c2.5-2.3,3.8-4.8,3.8-7.5c0-0.9-0.2-1.9-0.5-2.8s-0.9-2-1.7-3.1c-0.6-0.8-1.9-2.2-3.9-4.2s-3.2-3.3-3.8-4
	c-0.7-1.1-1.3-2.1-1.6-3.2s-0.5-2.1-0.5-3.2c0-2.1,0.7-4.3,2.1-6.4c1.4-2.2,3.3-3.9,5.6-5.2c2.3-1.3,4.9-1.9,7.8-1.9
	c1.5,0,3.2,0.2,5.4,0.7c1.2,0.2,2.3,0.4,3.2,0.5c-0.5,1.5-0.9,3-1.2,4.3S427.3,196.2,426.8,200.2z"/>
<path class="st0" d="M458.1,221.3l0.9,1.3c-2.2,2.4-4.4,4.3-6.6,5.7c-1.5,1-2.8,1.4-3.8,1.4c-0.8,0-1.5-0.3-2-1s-0.8-1.7-0.8-3.1
	c0-0.9,0.2-2.3,0.6-4.1s1.5-5.6,3.3-11.5c0.8-2.9,1.2-4.6,1.2-5.1c0-0.8-0.4-1.1-1.2-1.1c-1,0-2.2,0.5-3.7,1.5
	c-2.1,1.4-3.9,3.1-5.5,5.2c-1,1.3-1.8,3.3-2.4,6l-2.8,12.3H430c1.1-4.1,2-7.4,2.6-10l5.2-22.5c0.9-4.2,2.2-7.4,3.7-9.6
	c1.5-2.2,3.5-4,6-5.4c2.5-1.3,4.9-2,7.3-2c1,0,1.8,0.3,2.4,0.7c0.6,0.5,0.9,1.1,0.9,1.9c0,0.6-0.3,1.2-0.9,1.7s-1.4,0.7-2.3,0.7
	c-0.6,0-1.3-0.1-2.2-0.2c-2-0.3-3.4-0.4-4.2-0.4c-1.1,0-2,0.4-2.6,1.3s-1.4,2.9-2.1,6.1l-3.9,17.4c2.8-2.9,5.8-5.4,9.1-7.4
	c1.9-1.2,3.5-1.8,4.6-1.8c0.9,0,1.6,0.3,2.1,0.8s0.8,1.3,0.8,2.3c0,0.8-0.1,1.6-0.3,2.4c-0.3,1.4-1,3.9-2.2,7.5
	c-1.5,5-2.4,8.1-2.7,9.4c-0.3,1.2-0.4,2.3-0.4,3.3c0,0.4,0.1,0.7,0.2,0.8c0.1,0.2,0.3,0.3,0.6,0.3c0.6,0,1.6-0.7,3.2-2
	C455.8,223.2,456.9,222.3,458.1,221.3z"/>
<path class="st0" d="M480,219.9l1.2,1.5c-5.7,5.5-10.7,8.2-14.8,8.2c-1.7,0-2.9-0.6-3.8-1.7s-1.3-2.9-1.3-5.4c0-5,1.5-10,4.6-15
	c3.4-5.6,7.5-8.5,12.3-8.5c1.7,0,2.9,0.4,3.8,1.2s1.3,2,1.3,3.4c0,1.5-0.5,3-1.6,4.5s-2.9,3-5.7,4.6c-1.4,0.8-4.3,2.2-8.7,4.2
	c-0.2,1.3-0.3,2.5-0.3,3.6c0,1.7,0.3,2.8,0.8,3.5s1.3,1,2.3,1s2-0.3,3.2-0.8C474.8,223.7,477,222.2,480,219.9z M467.7,214.9
	c3.8-1.7,6.6-3.5,8.5-5.4c1.3-1.4,1.9-2.7,1.9-4c0-1-0.3-1.8-0.8-2.4s-1.2-0.9-2.1-0.9s-1.7,0.3-2.5,1c-1.1,0.9-2,2.2-2.8,3.9
	C468.9,209.6,468.1,212.2,467.7,214.9z"/>
<path class="st0" d="M500.7,220.3l1.2,1.3c-1.8,2.1-4,3.9-6.5,5.6s-4.6,2.5-6.2,2.5c-0.7,0-1.3-0.3-1.8-0.8
	c-0.5-0.6-0.7-1.3-0.7-2.3c0-1.9,0.7-5.8,2.2-11.7l3.8-15.4c1.4-5.6,2.5-9.3,3.5-11.2c1.5-2.9,3.5-5.1,6.2-6.7
	c2.7-1.6,5.5-2.4,8.4-2.4c1,0,1.8,0.2,2.4,0.7s0.9,1.1,0.9,1.8c0,0.8-0.3,1.4-0.8,1.9c-0.6,0.5-1.4,0.7-2.5,0.7
	c-0.7,0-1.7-0.1-3-0.4c-1.1-0.2-2.2-0.3-3.1-0.3c-1,0-1.7,0.2-2.2,0.6c-0.7,0.6-1.3,1.7-1.8,3.5s-1.4,5.3-2.7,10.6l-3.5,14.7
	c-1.7,7.4-2.6,11.2-2.6,11.6c0,0.8,0.3,1.1,0.8,1.1s1.3-0.3,2.3-0.9C496.8,223.8,498.7,222.2,500.7,220.3z"/>
<path class="st0" d="M513.2,193.8l5.6-2.1l-2.5,9.8h7.3L523,204h-7.3l-3.1,11.8c-1,3.5-1.5,6-1.5,7.4c0,0.6,0.1,1.1,0.4,1.4
	c0.3,0.3,0.6,0.4,1.1,0.4c0.7,0,1.8-0.4,3.3-1.3c2-1.1,3.8-2.4,5.6-3.9l1.3,1.6c-5.1,3.9-8.6,6.2-10.3,7.1c-1.7,0.9-3.1,1.3-4.2,1.3
	c-0.9,0-1.6-0.3-2.1-0.9c-0.5-0.6-0.8-1.7-0.8-3.1c0-1.7,0.4-4.3,1.3-7.7l3.6-14h-5.7l0.6-2.5h5.7L513.2,193.8z"/>
<path class="st0" d="M544.8,219.9l1.2,1.5c-5.7,5.5-10.7,8.2-14.8,8.2c-1.7,0-2.9-0.6-3.8-1.7s-1.3-2.9-1.3-5.4c0-5,1.5-10,4.6-15
	c3.4-5.6,7.5-8.5,12.3-8.5c1.7,0,2.9,0.4,3.8,1.2s1.3,2,1.3,3.4c0,1.5-0.5,3-1.6,4.5s-2.9,3-5.7,4.6c-1.4,0.8-4.3,2.2-8.7,4.2
	c-0.2,1.3-0.3,2.5-0.3,3.6c0,1.7,0.3,2.8,0.8,3.5s1.3,1,2.3,1s2-0.3,3.2-0.8C539.5,223.7,541.8,222.2,544.8,219.9z M532.5,214.9
	c3.8-1.7,6.6-3.5,8.5-5.4c1.3-1.4,1.9-2.7,1.9-4c0-1-0.3-1.8-0.8-2.4s-1.2-0.9-2.1-0.9c-0.9,0-1.7,0.3-2.5,1c-1.1,0.9-2,2.2-2.8,3.9
	C533.7,209.6,532.9,212.2,532.5,214.9z"/>
<path class="st0" d="M557.3,228.8h-5.2l2.5-9.5c1.2-4.6,2.2-9,3.1-13.2c0.2-1,0.3-1.7,0.3-1.9c0-0.6-0.3-0.8-0.8-0.8
	c-0.4,0-0.9,0.2-1.6,0.7c-0.7,0.5-2,1.7-3.9,3.6l-1.1-1.2c2.2-2.4,4.5-4.2,6.7-5.4s4-1.8,5.1-1.8c0.4,0,0.8,0.1,1,0.3
	s0.4,0.5,0.4,0.8s-0.2,1.1-0.5,2.4l-1.5,6.3c2.4-3.7,5-6.9,8-9.6c1.4-1.3,2.6-1.9,3.6-1.9c0.7,0,1.3,0.2,1.8,0.7s0.7,1,0.7,1.6
	s-0.2,1.2-0.7,1.6s-1.6,1-3.4,1.6c-1.7,0.6-3.1,1.3-4.2,2.1c-1.1,0.8-2.3,2.1-3.6,3.8s-2.2,3.2-2.7,4.4c-0.5,1.3-1.3,4.2-2.4,8.7
	L557.3,228.8z"/>
<path class="st0" d="M92.2,262.6c1.9-2.1,3.8-3.6,5.6-4.6c1.8-1,3.5-1.5,4.9-1.5c1.6,0,3,0.7,3.9,2s1.5,3.3,1.5,5.9
	c0,3.8-0.9,7.6-2.7,11.3c-1.8,3.7-4,6.5-6.7,8.4s-5.3,2.9-7.8,2.9c-2.2,0-3.9-0.6-5.2-1.9c-1.3-1.3-1.9-2.9-1.9-4.9
	c0-1.6,0.3-3.9,0.9-6.8l4.1-18.6c1-4.5,2.3-8,3.8-10.4s3.5-4.3,6-5.7s4.8-2.1,7.1-2.1c1.3,0,2.3,0.2,2.9,0.7s0.9,1.1,0.9,1.8
	s-0.3,1.3-0.8,1.8c-0.6,0.5-1.4,0.7-2.4,0.7c-0.8,0-2.1-0.2-4-0.5c-0.8-0.2-1.6-0.2-2.3-0.2c-1.2,0-2.1,0.6-2.8,1.9
	c-0.5,1-1.3,3.5-2.2,7.5L92.2,262.6z M99.1,260.4c-1.1,0-2.5,0.7-4.1,2.1s-3.1,3.8-4.5,7.3s-2.1,6.9-2.1,10.3c0,1.3,0.4,2.3,1.2,3.2
	s1.8,1.3,2.8,1.3c2.6,0,4.9-2.1,7-6.2s3.1-8.2,3.1-12.3c0-1.9-0.4-3.4-1.2-4.5C100.8,260.8,100,260.4,99.1,260.4z"/>
<path class="st0" d="M111.6,263.6l-1.1-1.7l2.6-1.8c2.5-1.7,4.3-2.8,5.3-3.3c0.6-0.3,1.1-0.4,1.6-0.4s1,0.3,1.4,0.8
	c2.1,2.6,3.8,6.1,5.2,10.5c1.4,4.4,2.1,8.7,2.1,12.8c0,0.5,0,1.4-0.1,2.5c4-7.3,5.9-13.1,5.9-17.4c0-0.9-0.2-2.1-0.6-3.6
	c-0.4-1.6-0.6-2.8-0.6-3.5s0.2-1.2,0.7-1.7c0.4-0.4,1-0.7,1.6-0.7c0.8,0,1.5,0.3,2,0.9s0.8,1.5,0.8,2.7c0,3-0.7,6.8-2.1,11.3
	c-1.4,4.5-3.6,9.4-6.5,14.6c-3,5.2-5.7,9-8.1,11.6c-2.4,2.5-4.8,4.3-7.1,5.4s-4.4,1.6-6.5,1.6c-1.5,0-2.7-0.3-3.5-0.9
	s-1.2-1.3-1.2-2.1c0-0.7,0.3-1.3,0.9-1.8s1.4-0.8,2.5-0.8c0.8,0,1.9,0.2,3.3,0.5c1.5,0.3,2.5,0.5,3,0.5c1.4,0,2.9-0.6,4.5-1.8
	c2.2-1.6,3.9-3.6,5.2-5.9c1.3-2.3,1.9-4.6,1.9-6.9c0-3.3-0.5-7.2-1.4-11.7c-0.9-4.6-2.3-8.1-4-10.5c-0.9-1.2-1.8-1.9-2.8-1.9
	C115.4,261.3,113.8,262.1,111.6,263.6z"/>
<path class="st0" d="M204.8,244.5l-0.2,0.9c-1.9,0.5-3.5,1.1-4.7,1.8s-2.9,2-5,3.8c-5.6,4.9-10.5,8.7-14.7,11.3
	c1.2,1.5,2.2,3.1,3.1,5s2.3,6,4.4,12.6c1.9,5.9,3.8,9.9,5.7,11.9c1.9,2.1,3.9,3.1,5.9,3.1c1.9,0,3.3-1,4-3.1c0.4-1.2,0.8-2,1.1-2.3
	c0.4-0.4,0.9-0.6,1.4-0.6c0.6,0,1,0.2,1.4,0.6s0.6,0.8,0.6,1.4c0,1.4-0.8,2.8-2.5,4.1c-1.7,1.3-3.8,2-6.3,2c-2.2,0-4.3-0.6-6.3-1.7
	s-3.8-2.9-5.4-5.3c-1.6-2.4-3.3-6.2-5-11.2c-1.6-4.8-2.8-8.1-3.7-9.8c-0.9-1.8-2.1-3.6-3.6-5.6l-3.7,14.2c-0.8,2.9-1.2,4.9-1.4,6.2
	c1.6,0.7,3,1,4.3,1c0.3,0,0.7,0,1.3-0.1l-0.5,1.8c-0.5,0-0.8,0-0.9,0c-0.8,0-1.9-0.1-3.3-0.2c-1.5-0.2-2.7-0.2-3.7-0.2
	c-1.9,0-5,0.4-9.2,1.1l0.2-1.7c2.2-0.4,3.8-1.1,4.7-1.8s1.6-2,2.2-3.7c1.2-3.8,2.9-9.5,4.9-17.1l4.3-16.3c-4.6,0.3-8.3,1.3-11,3.2
	c-2.1,1.4-3.1,2.9-3.1,4.6c0,0.6,0.3,1.4,0.9,2.3c0.5,0.8,0.8,1.5,0.8,2c0,0.6-0.2,1.2-0.7,1.7s-1,0.7-1.6,0.7
	c-0.7,0-1.4-0.4-1.9-1.1c-0.6-0.7-0.9-1.7-0.9-2.9c0-3.3,1.6-6.2,4.9-8.8c3.2-2.6,8.9-3.9,16.9-3.9h2.3c-1.3,3.3-2.1,5.8-2.5,7.3
	l-2.8,10.7c1.7-0.7,3.8-1.8,6.1-3.4s4.5-3.3,6.7-5c3.9-3.3,6.1-5.3,6.7-6c0.2-0.2,0.2-0.4,0.2-0.6c0-0.2-0.2-0.4-0.7-0.5
	c-0.5-0.2-1.8-0.3-4.1-0.3l0.5-2c3,0.3,5.5,0.4,7.4,0.4C199.9,244.9,202.2,244.8,204.8,244.5z"/>
<path class="st0" d="M227.9,255.8l2.3-0.5l-2.6,8.9c-1.1,3.5-2.1,7.6-3,12.2c-0.5,2.5-0.8,4.1-0.8,4.9s0.3,1.1,0.9,1.1
	c0.4,0,1-0.2,1.8-0.7c1.5-0.9,2.8-1.9,4.2-3.2l1.1,1.4c-2.7,2.4-4.4,3.9-5.1,4.4c-1.5,1-2.9,1.8-4.3,2.3c-0.9,0.3-1.8,0.5-2.6,0.5
	c-0.6,0-1.1-0.1-1.4-0.4c-0.3-0.3-0.5-0.7-0.5-1.2c0-0.4,0.1-0.8,0.3-1.4l1.4-4.8c-2,2.4-4.4,4.5-7.2,6.2c-1.7,1.1-3.3,1.6-4.7,1.6
	s-2.4-0.5-3.1-1.4c-1-1.3-1.5-3-1.5-5.1c0-2.5,0.7-5.3,2-8.3s3.1-5.8,5.3-8.3s4.6-4.3,7-5.5c1.9-0.9,4.3-1.3,7.3-1.3
	c0.8,0,1.5,0,2.3,0.1L227.9,255.8z M223.5,261.2c-1.3-0.3-2.3-0.4-3.2-0.4c-2.1,0-3.9,0.6-5.5,1.7c-1.6,1.2-3,3.2-4.4,6.3
	c-1.3,3-2,6-2,9c0,1.6,0.3,2.7,0.8,3.4c0.5,0.7,1.2,1.1,2.1,1.1c1.6,0,3.4-0.9,5.2-2.6c1.9-1.7,3.2-4.3,4.1-7.5L223.5,261.2z"/>
<path class="st0" d="M248.7,277.5l1.2,1.3c-1.8,2.1-4,3.9-6.5,5.6s-4.6,2.5-6.2,2.5c-0.7,0-1.3-0.3-1.8-0.8
	c-0.5-0.6-0.7-1.3-0.7-2.3c0-1.9,0.7-5.8,2.2-11.7l3.8-15.4c1.4-5.6,2.5-9.3,3.5-11.2c1.5-2.9,3.5-5.1,6.2-6.7
	c2.7-1.6,5.5-2.4,8.4-2.4c1,0,1.8,0.2,2.4,0.7s0.9,1.1,0.9,1.8c0,0.8-0.3,1.4-0.8,1.9c-0.6,0.5-1.4,0.7-2.5,0.7
	c-0.7,0-1.7-0.1-3-0.4c-1.1-0.2-2.2-0.3-3.1-0.3s-1.7,0.2-2.2,0.6c-0.7,0.6-1.3,1.7-1.8,3.5s-1.4,5.3-2.7,10.6l-3.5,14.7
	c-1.7,7.4-2.6,11.2-2.6,11.6c0,0.8,0.3,1.1,0.8,1.1s1.3-0.3,2.3-0.9C244.8,281,246.8,279.4,248.7,277.5z"/>
<path class="st0" d="M275.4,255.8l2.3-0.5l-2.6,8.9c-1.1,3.5-2.1,7.6-3,12.2c-0.5,2.5-0.8,4.1-0.8,4.9s0.3,1.1,0.9,1.1
	c0.4,0,1-0.2,1.8-0.7c1.5-0.9,2.8-1.9,4.2-3.2l1.1,1.4c-2.7,2.4-4.4,3.9-5.1,4.4c-1.5,1-2.9,1.8-4.3,2.3c-0.9,0.3-1.8,0.5-2.6,0.5
	c-0.6,0-1.1-0.1-1.4-0.4s-0.5-0.7-0.5-1.2c0-0.4,0.1-0.8,0.3-1.4l1.4-4.8c-2,2.4-4.4,4.5-7.2,6.2c-1.7,1.1-3.3,1.6-4.7,1.6
	c-1.4,0-2.4-0.5-3.1-1.4c-1-1.3-1.5-3-1.5-5.1c0-2.5,0.7-5.3,2-8.3s3.1-5.8,5.3-8.3c2.2-2.5,4.6-4.3,7-5.5c1.9-0.9,4.3-1.3,7.3-1.3
	c0.8,0,1.5,0,2.3,0.1L275.4,255.8z M271,261.2c-1.3-0.3-2.3-0.4-3.2-0.4c-2.1,0-3.9,0.6-5.5,1.7c-1.6,1.2-3,3.2-4.4,6.3
	c-1.3,3-2,6-2,9c0,1.6,0.3,2.7,0.8,3.4c0.5,0.7,1.2,1.1,2.1,1.1c1.6,0,3.4-0.9,5.2-2.6c1.9-1.7,3.2-4.3,4.1-7.5L271,261.2z"/>
<path class="st0" d="M297,256.4c2.1,0,3.7,0.4,4.8,1.2c1.1,0.8,1.7,1.7,1.7,2.8c0,0.6-0.2,1.2-0.7,1.7s-1.1,0.7-1.7,0.7
	c-0.4,0-0.8-0.1-1.2-0.3c-0.3-0.2-0.8-0.7-1.4-1.5c-1.1-1.5-2.3-2.3-3.4-2.3c-1,0-1.8,0.4-2.5,1.1s-1.1,1.7-1.1,2.8
	c0,1,0.2,1.9,0.7,2.8s1.7,2.4,3.6,4.4c2.6,2.8,3.9,5.4,3.9,7.9s-1.1,4.7-3.2,6.5s-4.8,2.8-8.2,2.8c-2.8,0-4.9-0.6-6.2-1.7
	c-1.4-1.1-2-2.5-2-4.2c0-0.8,0.3-1.5,0.8-2s1.1-0.8,1.9-0.8c0.7,0,1.2,0.2,1.7,0.7c0.5,0.4,0.7,0.9,0.7,1.5c0,0.2,0,0.5,0,0.9
	c0,0.3,0,0.6,0,0.8c0,0.8,0.3,1.4,1,2c0.6,0.5,1.5,0.8,2.6,0.8c1.3,0,2.4-0.2,3.3-0.6s1.7-1.1,2.2-2s0.8-1.7,0.8-2.6
	c0-0.8-0.3-1.7-0.8-2.5s-1.6-2.2-3.4-4.2c-2.4-2.7-3.7-5.3-3.7-7.8c0-2.3,0.9-4.3,2.8-6C291.8,257.3,294.2,256.4,297,256.4z"/>
<path class="st0" d="M332.9,278.5l0.9,1.3c-2.2,2.4-4.4,4.3-6.6,5.7c-1.5,1-2.8,1.4-3.8,1.4c-0.8,0-1.5-0.3-2-1s-0.8-1.7-0.8-3.1
	c0-0.9,0.2-2.3,0.6-4.1s1.5-5.6,3.3-11.5c0.8-2.9,1.2-4.6,1.2-5.1c0-0.8-0.4-1.1-1.2-1.1c-1,0-2.2,0.5-3.7,1.5
	c-2.1,1.4-3.9,3.1-5.5,5.2c-1,1.3-1.8,3.3-2.4,6L310,286h-5.2c1.1-4.1,2-7.4,2.6-10l5.2-22.5c0.9-4.2,2.2-7.4,3.7-9.6
	c1.5-2.2,3.5-4,6-5.4c2.5-1.3,4.9-2,7.3-2c1,0,1.8,0.3,2.4,0.7c0.6,0.5,0.9,1.1,0.9,1.9c0,0.6-0.3,1.2-0.9,1.7s-1.4,0.7-2.3,0.7
	c-0.6,0-1.3-0.1-2.2-0.2c-2-0.3-3.4-0.4-4.2-0.4c-1.1,0-2,0.4-2.6,1.3s-1.4,2.9-2.1,6.1l-3.9,17.4c2.8-2.9,5.8-5.4,9.1-7.4
	c1.9-1.2,3.5-1.8,4.6-1.8c0.9,0,1.6,0.3,2.1,0.8s0.8,1.3,0.8,2.3c0,0.8-0.1,1.6-0.3,2.4c-0.3,1.4-1,3.9-2.2,7.5
	c-1.5,5-2.4,8.1-2.7,9.4c-0.3,1.2-0.4,2.3-0.4,3.3c0,0.4,0.1,0.7,0.2,0.8c0.1,0.2,0.3,0.3,0.6,0.3c0.6,0,1.6-0.7,3.2-2
	C330.6,280.4,331.6,279.5,332.9,278.5z"/>
<path class="st0" d="M337.4,264.7l-1.2-1.2c3-2.9,5.4-4.8,7.2-5.7c1.8-0.9,3.3-1.4,4.6-1.4c0.5,0,0.9,0.1,1.2,0.3s0.4,0.5,0.4,0.7
	s-0.1,0.6-0.2,1.1l-1.6,7.1c2.4-2.7,5.4-5.1,9-7.4c1.9-1.2,3.5-1.8,4.7-1.8c0.9,0,1.6,0.3,2.1,0.9s0.8,1.4,0.8,2.5
	c0,0.7-0.1,1.5-0.3,2.5c-0.4,1.5-1.4,4.8-2.9,9.9c-1.5,4.8-2.2,8-2.2,9.5c0,0.5,0.1,0.8,0.2,1.1s0.3,0.4,0.6,0.4
	c0.7,0,1.7-0.7,3.2-2c1-0.9,2.1-1.8,3.1-2.6l0.9,1.3c-2.2,2.4-4.4,4.3-6.7,5.7c-1.5,0.9-2.7,1.4-3.7,1.4c-0.9,0-1.6-0.3-2.1-1
	s-0.7-1.7-0.7-3.1c0-2.1,1.3-7.3,3.9-15.6c0.8-3,1.2-4.7,1.2-5.2c0-0.7-0.4-1.1-1.3-1.1s-2.1,0.5-3.6,1.5c-2.2,1.5-4,3.2-5.5,5.1
	c-0.9,1.3-1.7,3.3-2.4,6.1l-2.8,12.3h-5.2c1-3.5,1.8-6.9,2.6-10.1l3.1-13.4c0.1-0.5,0.2-0.9,0.2-1.2c0-0.6-0.2-1-0.7-1
	c-0.4,0-0.9,0.2-1.6,0.7C340,262.1,338.6,263.3,337.4,264.7z"/>
<path class="st0" d="M370.6,264.6l-1.5-1.2c2.3-2.6,4.5-4.4,6.4-5.5s3.6-1.6,4.9-1.6c0.7,0,1.3,0.2,1.7,0.5c0.4,0.3,0.6,0.8,0.6,1.3
	c0,0.7-0.8,3.6-2.3,8.6c-2.5,8.3-3.7,13.3-3.7,15c0,0.3,0.1,0.6,0.2,0.8s0.3,0.3,0.5,0.3c0.8,0,2.7-1.5,5.8-4.4l1.4,1.3
	c-3.2,3-5.6,5-7,5.8s-2.7,1.3-3.6,1.3c-0.8,0-1.5-0.3-2-0.8s-0.7-1.2-0.7-2.1c0-2.9,1.8-10.1,5.3-21.5c0.2-0.5,0.2-1,0.2-1.4
	c0-0.5-0.2-0.7-0.6-0.7c-0.5,0-1,0.2-1.6,0.6S372.6,262.6,370.6,264.6z M384.4,241.3c0.7,0,1.3,0.2,1.8,0.7s0.7,1.1,0.7,1.8
	c0,1-0.4,1.9-1.1,2.7s-1.5,1.2-2.4,1.2c-0.7,0-1.3-0.2-1.8-0.7s-0.7-1.1-0.7-1.9c0-1.1,0.3-2,1-2.7S383.4,241.3,384.4,241.3z"/>
<path class="st0" d="M392.1,286h-5.2l4.6-19.2c2.2-9.5,3.7-15.4,4.4-17.6c0.7-2.2,1.5-4,2.5-5.5s2.2-2.7,3.7-3.8s3-2,4.7-2.6
	s3.2-0.9,4.5-0.9c1.2,0,2.1,0.2,2.7,0.7s0.9,1.1,0.9,1.9c0,0.7-0.3,1.2-0.8,1.7s-1.2,0.7-2,0.7c-1,0-2.6-0.2-4.7-0.5
	c-0.7-0.1-1.3-0.2-1.8-0.2c-0.7,0-1.4,0.3-2.1,0.8c-0.6,0.5-1.2,1.4-1.7,2.8c-0.5,1.3-1.2,4.1-2.1,8.3l-2.5,11.2
	c2.3-2.6,4.6-4.5,7-5.9c1.8-1,3.6-1.5,5.2-1.5c1.2,0,2.2,0.4,3,1.3s1.2,2,1.2,3.3c0,2.5-1.3,4.7-3.9,6.7s-6.6,3-11.9,3.2
	c1.8,0.8,3.2,1.7,4.3,2.6s2.1,2.3,3.2,3.9s2.4,4.5,4,8.4c1.9,4.7,3.8,7.8,5.4,9.4c1.6,1.5,3.4,2.3,5.4,2.3c1.1,0,2.1-0.3,2.8-0.8
	s1.1-1,1.1-1.5c0-0.3-0.1-0.8-0.4-1.3c-0.3-0.6-0.4-1.1-0.4-1.5c0-0.5,0.2-1,0.6-1.4s0.9-0.6,1.5-0.6c0.7,0,1.2,0.3,1.7,0.8
	s0.7,1.2,0.7,2.1c0,1.7-0.8,3.2-2.3,4.5s-3.6,2-6,2c-2.6,0-4.8-0.6-6.9-1.9c-2-1.3-3.9-3.4-5.7-6.2c-1-1.6-2.8-5.4-5.3-11.2
	c-1.2-2.8-2.2-4.8-3.2-6.2c-0.7-1.1-1.7-2.1-3-3.2L392.1,286z M395.9,269.3c3.1,0,5.7-0.3,7.6-0.9s3.3-1.5,4.2-2.5s1.2-2.2,1.2-3.4
	c0-0.9-0.2-1.6-0.7-2.1s-1.1-0.8-1.7-0.8c-2.2,0-5.6,2.5-10.1,7.4L395.9,269.3z"/>
<path class="st0" d="M435.8,256.4c2.3,0,4.2,0.9,5.7,2.7s2.3,4.4,2.3,7.6c0,5.2-1.8,9.9-5.5,14s-7.5,6.2-11.6,6.2
	c-2.5,0-4.5-0.8-6.1-2.5s-2.3-3.9-2.3-6.7c0-4.9,1.4-9.5,4.2-13.6C426.1,259,430.5,256.4,435.8,256.4z M432.8,259.1
	c-2,0-3.9,1.4-5.8,4.3s-2.8,6.8-2.8,11.8c0,3,0.6,5.4,1.7,7.2c0.8,1.3,2,1.9,3.4,1.9c2,0,3.8-1.2,5.4-3.7c2.1-3.2,3.1-7.1,3.1-11.8
	c0-3.5-0.5-6-1.4-7.5S434.2,259.1,432.8,259.1z"/>
<path class="st0" d="M463.4,259.8c-1.8,2.9-3.1,5.4-3.7,7.6s-1,4.4-1,6.6c0,2,0.4,5.2,1.3,9.5c5.2-3.9,8.8-7.6,11-11.1
	s3.2-6.4,3.2-8.9c0-0.7-0.3-1.6-0.8-2.7c-0.6-1.2-0.9-2-0.9-2.6s0.2-1.1,0.6-1.6s0.9-0.7,1.5-0.7c0.8,0,1.4,0.3,1.9,1
	s0.7,1.8,0.7,3.4c0,5-1.8,9.9-5.3,14.6c-4.3,5.8-9.8,10.3-16.5,13.4c-0.2-1.1-0.5-2.9-1-5.3c-1-4.9-1.4-8.2-1.4-10.1
	c0-2.5,0.6-4.9,1.8-7.3s2.9-4.4,5.2-6.1c-4.1,0.1-7.1,0.5-8.9,1.4c-1.3,0.6-1.9,1.3-1.9,2.1c0,0.3,0.2,0.9,0.5,1.7
	c0.2,0.5,0.3,1,0.3,1.4s-0.2,0.7-0.5,1s-0.7,0.4-1.2,0.4c-0.6,0-1.1-0.3-1.5-0.8s-0.6-1.2-0.6-2.1c0-1.4,0.5-2.6,1.4-3.7
	s2.5-2,4.7-2.6s5.2-0.9,8.9-0.9c1.5-0.7,2.4-1,2.8-1s0.7,0.2,1,0.5s0.5,0.6,0.5,1C465.5,258.5,464.8,259.2,463.4,259.8z"/>
<path class="st0" d="M0,84.2c4.3-1.4,7-2.4,9.8-3.2C99.6,54.3,189.3,27.6,279.1,1.3c5.2-1.5,12.3-1.8,17.5-0.3
	c90.4,26.5,180.7,53.4,271,80.2c2.5,0.7,4.9,1.7,9,3.2c-10,3.8-18.3,7.3-27.1,10c-2.9,0.9-7.1-0.3-10.3-1.2
	C458.5,69.3,378,45.4,297.5,21.4c-6.5-1.9-11.9-1.9-18.4,0c-79.3,23.7-158.7,47.2-238,70.9c-8.1,2.4-14.9,2.9-22.4-0.8
	C13.3,88.8,7.3,87,0,84.2z"/>
<path class="st0" d="M83.2,179.4c-10.4,0-20.3,0-30.9,0c0-27.2,0-54,0-81.3c10.3,0,20.2,0,30.9,0C83.2,124.9,83.2,151.7,83.2,179.4z
	"/>
</svg>
